# Blender v2.78 (sub 0) OBJ File: 'hallway.blend'
# www.blender.org
mtllib hallway.mtl
o Plane.001
v -0.619523 0.293237 -3.773815
v 0.619523 0.293237 -3.773815
v -0.619523 3.660128 -3.773815
v 0.000000 3.660128 -3.773815
v 0.619523 3.660128 -3.773815
v -0.619523 3.660128 5.744207
v -0.619523 0.293237 5.744207
v 0.000000 3.660128 5.744207
v 0.619523 3.660128 5.744207
v 0.619523 0.293237 5.744207
v 0.597444 0.005225 5.762033
v 0.000000 0.005225 5.767897
v -0.597444 0.005225 5.762434
v -0.597444 0.288011 5.762434
v 0.597444 0.288011 5.762033
v 0.597444 0.288011 -3.773261
v 0.597444 0.005225 -3.765301
v -0.597444 0.288011 -3.777861
v -0.597444 0.005225 -3.770133
v 0.000000 0.005225 -3.767717
v -0.619523 3.660128 3.364702
v -0.619523 3.660128 0.985196
v -0.619523 3.660128 -1.394310
v 0.000000 3.660128 -1.394310
v 0.000000 3.660128 0.985196
v 0.000000 3.660128 3.364702
v -0.619523 0.293237 -1.394310
v -0.619523 0.293237 0.985196
v -0.619523 0.293237 3.364702
v 0.619523 0.293237 3.364702
v 0.619523 0.293237 0.985196
v 0.619523 0.293237 -1.394310
v 0.597444 0.288011 -1.389437
v 0.597444 0.288011 0.994386
v 0.597444 0.288011 3.378210
v 0.619523 3.660128 3.364702
v 0.619523 3.660128 0.985196
v 0.619523 3.660128 -1.394310
v 0.597444 0.005225 -1.383467
v 0.597444 0.005225 0.998367
v 0.597444 0.005225 3.380200
v -0.597444 0.288011 3.377360
v -0.597444 0.288011 0.992286
v -0.597444 0.288011 -1.392787
v -0.597444 0.005225 3.379292
v -0.597444 0.005225 0.996151
v -0.597444 0.005225 -1.386991
v 0.000000 0.005225 3.383994
v 0.000000 0.005225 1.000090
v 0.000000 0.005225 -1.383813
v 0.623999 3.655862 2.097601
v 0.623999 0.288971 2.097601
v 0.633342 3.655862 2.717054
v 0.642684 3.655862 3.336506
v 0.642684 0.288971 3.336506
v 0.624527 0.000959 3.314698
v 0.609655 0.000959 2.717411
v 0.606107 0.000959 2.119952
v 0.606107 0.283745 2.119952
v 0.624527 0.283745 3.314698
v 3.003234 3.655862 2.061718
v 3.012577 3.655862 2.681171
v 3.003234 0.288971 2.061718
v 3.021919 0.288971 3.300623
v 3.008080 0.283745 3.278751
v 3.021919 3.655862 3.300623
v 3.006089 0.000959 3.278780
v 2.990910 0.283745 2.083986
v 2.988978 0.000959 2.084015
v 2.993287 0.000959 2.681462
v -3.041200 3.643261 -1.339520
v -3.041200 0.276369 -1.339520
v -3.031858 3.643261 -0.720067
v -3.022516 3.643261 -0.100615
v -3.022516 0.276369 -0.100615
v -3.040673 -0.011642 -0.122422
v -3.055545 -0.011642 -0.719710
v -3.059092 -0.011642 -1.317168
v -3.059092 0.271144 -1.317168
v -3.040673 0.271144 -0.122422
v -0.661966 3.644960 -1.375402
v -0.652624 3.655165 -0.755950
v -0.661966 0.276369 -1.375402
v -0.643281 0.276369 -0.136498
v -0.657121 0.271144 -0.158370
v -0.643281 3.653466 -0.136498
v -0.659111 -0.011642 -0.158340
v -0.674290 0.271144 -1.353135
v -0.676222 -0.011642 -1.353106
v -0.671913 -0.011642 -0.755659
v -0.619523 3.660128 -0.133539
v 0.000000 3.660128 -0.133539
v -0.619523 0.293237 -0.133539
v 0.619523 0.293237 -0.133539
v 0.597444 0.288011 -0.126411
v 0.619523 3.660128 -0.133539
v 0.597444 0.005225 -0.121480
v -0.597444 0.288011 -0.129108
v -0.597444 0.005225 -0.124321
v 0.000000 0.005225 -0.120745
v -0.619523 3.660128 2.087105
v 0.000000 3.660128 2.087105
v -0.619523 0.293237 2.087105
v 0.619523 0.293237 2.087105
v 0.597444 0.288011 2.098295
v 0.619523 3.660128 2.087105
v 0.597444 0.005225 2.101354
v -0.597444 0.288011 2.096774
v -0.597444 0.005225 2.099743
v 0.000000 0.005225 2.104036
vn -1.0000 0.0000 0.0000
vn 0.0000 -1.0000 0.0000
vn 1.0000 0.0000 0.0000
vn -0.2303 0.9731 0.0000
vn 0.2303 0.9731 0.0000
vn 0.0000 1.0000 0.0000
vn -0.0151 0.0000 -0.9999
vn 0.0151 0.0000 0.9999
vn 0.0035 0.9731 0.2303
vn 0.0030 -1.0000 0.0082
vn 0.0046 -1.0000 -0.0014
vn 0.4644 -0.0092 -0.8856
vn -0.0035 0.9731 -0.2303
vn -0.2272 0.9738 0.0016
vn 0.4258 0.0079 0.9048
vn -0.0507 0.9066 0.4190
vn -0.1207 0.8254 -0.5515
vn 0.1236 -0.0000 -0.9923
vn 0.4069 0.0000 0.9135
vn 0.2343 -0.9722 0.0022
vn -0.9184 0.0021 0.3957
vn -0.9221 -0.0014 -0.3870
vn 0.2684 0.9633 -0.0020
vn -0.2069 0.9572 -0.2024
vn -0.0278 0.9633 0.2670
vn -0.9198 0.0000 0.3923
vn -0.7727 0.0000 -0.6347
vn -0.2937 -0.9559 0.0022
usemtl None
s off
f 36//1 30//1 10//1 9//1
f 21//2 26//2 8//2 6//2
f 29//3 21//3 6//3 7//3
f 26//2 36//2 9//2 8//2
f 35//1 41//1 11//1 15//1
f 35//4 15//4 10//4 30//4
f 45//3 42//3 14//3 13//3
f 42//5 29//5 7//5 14//5
f 41//6 48//6 12//6 11//6
f 48//6 45//6 13//6 12//6
f 20//6 19//6 47//6 50//6
f 100//6 99//6 46//6 49//6
f 110//6 109//6 45//6 48//6
f 17//6 20//6 50//6 39//6
f 97//6 100//6 49//6 40//6
f 107//6 110//6 48//6 41//6
f 18//5 1//5 27//5 44//5
f 98//5 93//5 28//5 43//5
f 108//5 103//5 29//5 42//5
f 19//3 18//3 44//3 47//3
f 99//3 98//3 43//3 46//3
f 109//3 108//3 42//3 45//3
f 16//4 33//4 32//4 2//4
f 95//4 34//4 31//4 94//4
f 16//1 17//1 39//1 33//1
f 95//1 97//1 40//1 34//1
f 4//2 5//2 38//2 24//2
f 92//2 96//2 37//2 25//2
f 102//2 106//2 36//2 26//2
f 1//3 3//3 23//3 27//3
f 93//3 91//3 22//3 28//3
f 103//3 101//3 21//3 29//3
f 3//2 4//2 24//2 23//2
f 91//2 92//2 25//2 22//2
f 101//2 102//2 26//2 21//2
f 5//1 2//1 32//1 38//1
f 96//1 94//1 31//1 37//1
f 66//7 64//7 55//7 54//7
f 61//2 62//2 53//2 51//2
f 63//8 61//8 51//8 52//8
f 62//2 66//2 54//2 53//2
f 65//7 67//7 56//7 60//7
f 69//8 68//8 59//8 58//8
f 68//9 63//9 52//9 59//9
f 67//6 70//6 57//6 56//6
f 70//6 69//6 58//6 57//6
f 86//7 84//7 75//7 74//7
f 81//10 82//10 73//10 71//10
f 83//8 81//8 71//8 72//8
f 82//11 86//11 74//11 73//11
f 85//7 87//7 76//7 80//7
f 89//8 88//8 79//8 78//8
f 88//9 83//9 72//9 79//9
f 87//6 90//6 77//6 76//6
f 90//6 89//6 78//6 77//6
f 38//1 32//1 94//1 96//1
f 23//2 24//2 92//2 91//2
f 24//2 38//2 96//2 92//2
f 33//1 39//1 97//1 95//1
f 33//4 95//4 94//4 32//4
f 98//12 99//12 87//12 85//12
f 75//13 84//13 85//13 80//13
f 39//6 50//6 100//6 97//6
f 50//6 47//6 99//6 100//6
f 37//1 31//1 104//1 106//1
f 22//2 25//2 102//2 101//2
f 28//3 22//3 101//3 103//3
f 25//2 37//2 106//2 102//2
f 34//1 40//1 107//1 105//1
f 34//4 105//4 104//4 31//4
f 46//3 43//3 108//3 109//3
f 43//5 28//5 103//5 108//5
f 40//6 49//6 110//6 107//6
f 49//6 46//6 109//6 110//6
f 99//14 47//14 89//14 90//14 87//14
f 47//15 44//15 88//15 89//15
f 44//16 27//16 83//16 88//16
f 98//17 85//17 84//17 93//17
f 84//18 86//18 91//18 93//18
f 27//19 23//19 81//19 83//19
f 23//20 91//20 86//20 82//20 81//20
f 65//13 60//13 55//13 64//13
f 59//21 105//21 107//21 58//21
f 41//22 35//22 60//22 56//22
f 107//23 41//23 56//23 57//23 58//23
f 30//24 55//24 60//24 35//24
f 52//25 104//25 105//25 59//25
f 51//26 106//26 104//26 52//26
f 30//27 36//27 54//27 55//27
f 53//28 54//28 36//28 106//28 51//28
